<svg xmlns="http://www.w3.org/2000/svg" version="1.1" xmlns:xlink="http://www.w3.org/1999/xlink" xmlns:svgjs="http://svgjs.dev/svgjs" width="1000" height="750" viewBox="0 0 1000 750"><rect width="1000" height="750" fill="#6936f5"></rect><g transform="matrix(0.834,0,0,0.834,83,114.375)"><svg viewBox="0 0 512 320" data-background-color="#6936f5" preserveAspectRatio="xMidYMid meet" height="625" width="1000" xmlns="http://www.w3.org/2000/svg" xmlns:xlink="http://www.w3.org/1999/xlink"><g id="tight-bounds" transform="matrix(1,0,0,1,0,0)"><svg viewBox="0 0 512 320" height="320" width="512"><g><svg></svg></g><g><svg viewBox="0 0 512 320" height="320" width="512"><g><path xmlns="http://www.w3.org/2000/svg" d="M96 160c0-88.366 71.634-160 160-160 88.366 0 160 71.634 160 160 0 88.366-71.634 160-160 160-88.366 0-160-71.634-160-160zM256 313.512c84.782 0 153.512-68.73 153.512-153.512 0-84.782-68.73-153.512-153.512-153.512-84.782 0-153.512 68.73-153.512 153.512 0 84.782 68.73 153.512 153.512 153.512z" fill="#ffffff" fill-rule="nonzero" stroke="none" stroke-width="1" stroke-linecap="butt" stroke-linejoin="miter" stroke-miterlimit="10" stroke-dasharray="" stroke-dashoffset="0" font-family="none" font-weight="none" font-size="none" text-anchor="none" style="mix-blend-mode: normal" data-fill-palette-color="tertiary"></path></g><g transform="matrix(1,0,0,1,172.60435119097914,80)"><svg viewBox="0 0 166.7912976180417 160" height="160" width="166.7912976180417"><g><svg viewBox="0 0 256 245.5763615065813" height="160" width="166.7912976180417"><g transform="matrix(1,0,0,1,0,147.95154778058898)"><svg viewBox="0 0 256 97.62481372599231" height="97.62481372599231" width="256"><g id="textblocktransform"><svg viewBox="0 0 256 97.62481372599231" height="97.62481372599231" width="256" id="textblock"><g><svg viewBox="0 0 256 55.2112676056338" height="55.2112676056338" width="256"><g transform="matrix(1,0,0,1,0,0)"><svg width="256" viewBox="2.3499999046325684 -36.150001525878906 170.38999938964844 36.75" height="55.2112676056338" data-palette-color="#ffffff"><path d="M19.05 0.6Q10.75 0.6 6.55-3.83 2.35-8.25 2.35-17.15L2.35-17.15Q2.35-26.05 6.55-30.48 10.75-34.9 19.05-34.9L19.05-34.9Q25.75-34.9 29.78-31.58 33.8-28.25 33.8-21.9L33.8-21.9 28.95-21.9Q28.95-26.3 26.33-28.58 23.7-30.85 19.05-30.85L19.05-30.85Q13-30.85 10.15-27.65 7.3-24.45 7.25-17.25L7.25-17.25 7.25-17.15Q7.25-9.9 10.1-6.68 12.95-3.45 19.05-3.45L19.05-3.45Q23.8-3.45 26.48-5.7 29.15-7.95 29.15-12.3L29.15-12.3 33.8-12.3Q33.8-5.9 29.8-2.65 25.8 0.6 19.05 0.6L19.05 0.6ZM39.45 0L39.45-36.15 43.85-36.15 43.85-23.35 44.2-23.35Q46.95-26.9 52.5-26.9L52.5-26.9Q60.7-26.9 60.7-17.95L60.7-17.95 60.7 0 56.3 0 56.3-17.65Q56.3-20.8 54.9-22.03 53.5-23.25 50.85-23.25L50.85-23.25Q48.95-23.25 47.35-22.33 45.75-21.4 44.8-19.65 43.85-17.9 43.85-15.55L43.85-15.55 43.85 0 39.45 0ZM74.4 0.6Q71 0.6 68.35-1 65.7-2.6 65.7-6.8L65.7-6.8Q65.7-11.85 70.2-13.73 74.7-15.6 83.2-15.6L83.2-15.6 83.2-18.5Q83.2-20.8 81.9-22.03 80.6-23.25 77.2-23.25L77.2-23.25Q74-23.25 72.62-22.05 71.25-20.85 71.25-19.1L71.25-19.1 71.25-18.5 67-18.5Q66.95-18.8 66.95-19.6L66.95-19.6Q66.95-23.1 69.85-25 72.75-26.9 77.6-26.9L77.6-26.9Q82.5-26.9 85.05-24.85 87.6-22.8 87.6-19.05L87.6-19.05 87.6-4.8Q87.6-3.9 88.1-3.48 88.6-3.05 89.35-3.05L89.35-3.05 91.35-3.05 91.35-0.2Q90.05 0.4 87.95 0.4L87.95 0.4Q86.25 0.4 85.1-0.63 83.95-1.65 83.55-3.35L83.55-3.35 83.2-3.35Q81.85-1.5 79.52-0.45 77.2 0.6 74.4 0.6L74.4 0.6ZM75.55-3.05Q77.5-3.05 79.25-3.85 81-4.65 82.1-6.23 83.2-7.8 83.2-10.05L83.2-10.05 83.2-11.95Q76.75-11.95 73.52-10.93 70.3-9.9 70.3-7.05L70.3-7.05Q70.3-4.9 71.62-3.98 72.95-3.05 75.55-3.05L75.55-3.05ZM100.99 0.55Q98.29 0.55 97.04-1.05 95.79-2.65 95.79-5L95.79-5 95.79-22.65 92.59-22.65 92.59-26.3 95.84-26.3 96.79-33.6 100.19-33.6 100.19-26.3 104.64-26.3 104.64-22.65 100.19-22.65 100.19-5.4Q100.19-3.05 102.39-3.05L102.39-3.05 104.64-3.05 104.64-0.15Q103.99 0.15 102.94 0.35 101.89 0.55 100.99 0.55L100.99 0.55ZM105.84 0L119.34-17.95 107.04-34.3 112.94-34.3 122.04-22.05 122.44-22.05 131.64-34.3 137.34-34.3 125.14-18 138.69 0 132.84 0 122.39-14.05 121.99-14.05 111.59 0 105.84 0ZM142.89 0L142.89-34.3 155.59-34.3Q163.84-34.3 168.29-30.08 172.74-25.85 172.74-17.15L172.74-17.15Q172.74-8.45 168.29-4.23 163.84 0 155.59 0L155.59 0 142.89 0ZM147.64-4.15L155.59-4.15Q161.54-4.15 164.66-7.15 167.79-10.15 167.84-17.05L167.84-17.05 167.84-17.15Q167.84-24.1 164.71-27.13 161.59-30.15 155.59-30.15L155.59-30.15 147.64-30.15 147.64-4.15Z" opacity="1" transform="matrix(1,0,0,1,0,0)" fill="#ffffff" class="wordmark-text-0" data-fill-palette-color="primary" id="text-0"></path></svg></g></svg></g><g transform="matrix(1,0,0,1,0,68.2453228169014)"><svg viewBox="0 0 256 29.379490909090904" height="29.379490909090904" width="256"><g transform="matrix(1,0,0,1,0,0)"><svg width="256" viewBox="3.799999952316284 -38.849998474121094 343.71002197265625 39.44999694824219" height="29.379490909090904" data-palette-color="#ffffff"><path d="M24.2 0L19.2 0 12.5-14.75Q12.15-14.7 11.45-14.7L11.45-14.7 8.35-14.7 8.35 0 3.8 0 3.8-34.45 10.7-34.45Q16.75-34.45 19.7-31.95 22.65-29.45 22.65-24.75L22.65-24.75Q22.65-21.45 21.1-19.07 19.55-16.7 16.65-15.6L16.65-15.6 24.2 0ZM11.05-18.2Q14.65-18.2 16.25-19.78 17.85-21.35 17.85-24.75L17.85-24.75Q17.85-27.9 16.2-29.38 14.55-30.85 10.65-30.85L10.65-30.85 8.35-30.85 8.35-18.2 11.05-18.2ZM45.8-13.95Q45.8-12.85 45.7-11.65L45.7-11.65 31.9-11.65Q32.1-6.9 33.47-4.95 34.85-3 37.4-3L37.4-3Q39.05-3 40.35-3.53 41.65-4.05 43.05-5.2L43.05-5.2 45-2.55Q41.7 0.6 37.25 0.6L37.25 0.6Q32.55 0.6 29.95-2.88 27.35-6.35 27.35-12.9L27.35-12.9Q27.35-19.45 29.82-23.18 32.3-26.9 36.8-26.9L36.8-26.9Q41.15-26.9 43.47-23.63 45.8-20.35 45.8-13.95L45.8-13.95ZM41.55-14.9L41.55-15.25Q41.55-19.55 40.4-21.5 39.25-23.45 36.8-23.45L36.8-23.45Q34.6-23.45 33.35-21.48 32.1-19.5 31.9-14.9L31.9-14.9 41.55-14.9ZM66.65-5.6Q66.65-4.2 67.05-3.53 67.45-2.85 68.34-2.45L68.34-2.45 67.4 0.6Q65.55 0.3 64.47-0.58 63.4-1.45 62.95-3.2L62.95-3.2Q60.8 0.6 56.65 0.6L56.65 0.6Q53.4 0.6 51.47-1.58 49.55-3.75 49.55-7.35L49.55-7.35Q49.55-11.55 52.15-13.78 54.75-16 59.7-16L59.7-16 62.3-16 62.3-18.4Q62.3-21 61.27-22.2 60.25-23.4 58.09-23.4L58.09-23.4Q55.55-23.4 52.15-22.05L52.15-22.05 51.05-25.15Q55.09-26.9 58.65-26.9L58.65-26.9Q62.7-26.9 64.67-24.73 66.65-22.55 66.65-18.6L66.65-18.6 66.65-5.6ZM57.55-2.7Q60.65-2.7 62.3-6.9L62.3-6.9 62.3-13.05 60.2-13.05Q57.05-13.05 55.57-11.7 54.09-10.35 54.09-7.55L54.09-7.55Q54.09-5.15 55-3.93 55.9-2.7 57.55-2.7L57.55-2.7ZM78.59 0.6Q76.39 0.6 75.07-0.8 73.74-2.2 73.74-4.6L73.74-4.6 73.74-36.95 78.14-37.45 78.14-4.7Q78.14-3.05 79.54-3.05L79.54-3.05Q80.19-3.05 80.79-3.3L80.79-3.3 81.79-0.3Q80.34 0.6 78.59 0.6L78.59 0.6ZM96.14-3.95L97.84-1.2Q95.59 0.6 92.79 0.6L92.79 0.6Q89.84 0.6 88.22-1.15 86.59-2.9 86.59-5.85L86.59-5.85 86.59-22.9 83.04-22.9 83.04-26.35 86.59-26.35 86.59-32.3 90.99-32.85 90.99-26.35 96.09-26.35 95.64-22.9 90.99-22.9 90.99-5.8Q90.99-3.05 93.34-3.05L93.34-3.05Q94.14-3.05 94.74-3.25 95.34-3.45 96.14-3.95L96.14-3.95ZM101.49-26.35L105.89-26.35 105.89 0 101.49 0 101.49-26.35ZM103.64-38.85Q104.99-38.85 105.79-38 106.59-37.15 106.59-35.8L106.59-35.8Q106.59-34.55 105.76-33.7 104.94-32.85 103.64-32.85L103.64-32.85Q102.34-32.85 101.51-33.7 100.69-34.55 100.69-35.8L100.69-35.8Q100.69-37.1 101.51-37.98 102.34-38.85 103.64-38.85L103.64-38.85ZM135.39-26.9Q138.04-26.9 139.64-24.83 141.24-22.75 141.24-19.35L141.24-19.35 141.24 0 136.94 0 136.94-18.8Q136.94-21.3 136.26-22.4 135.59-23.5 134.29-23.5L134.29-23.5Q131.64-23.5 129.39-18.8L129.39-18.8 129.39 0 125.09 0 125.09-18.8Q125.09-23.5 122.44-23.5L122.44-23.5Q121.04-23.5 119.76-22.25 118.49-21 117.49-18.8L117.49-18.8 117.49 0 113.19 0 113.19-26.35 116.99-26.35 117.29-22.55Q119.79-26.9 123.54-26.9L123.54-26.9Q125.54-26.9 126.91-25.68 128.29-24.45 128.89-22.2L128.89-22.2Q131.59-26.9 135.39-26.9L135.39-26.9ZM165.38-13.95Q165.38-12.85 165.28-11.65L165.28-11.65 151.48-11.65Q151.68-6.9 153.06-4.95 154.43-3 156.98-3L156.98-3Q158.63-3 159.93-3.53 161.23-4.05 162.63-5.2L162.63-5.2 164.58-2.55Q161.28 0.6 156.83 0.6L156.83 0.6Q152.13 0.6 149.53-2.88 146.93-6.35 146.93-12.9L146.93-12.9Q146.93-19.45 149.41-23.18 151.88-26.9 156.38-26.9L156.38-26.9Q160.73-26.9 163.06-23.63 165.38-20.35 165.38-13.95L165.38-13.95ZM161.13-14.9L161.13-15.25Q161.13-19.55 159.98-21.5 158.83-23.45 156.38-23.45L156.38-23.45Q154.18-23.45 152.93-21.48 151.68-19.5 151.48-14.9L151.48-14.9 161.13-14.9ZM203.23-26.35L207.33-26.35 202.53 0 196.68 0 193.13-22.25 189.63 0 183.88 0 178.98-26.35 183.28-26.35 186.88-3.25 190.68-26.35 195.83-26.35 199.53-3.25 203.23-26.35ZM229.02-13.95Q229.02-12.85 228.92-11.65L228.92-11.65 215.13-11.65Q215.32-6.9 216.7-4.95 218.07-3 220.63-3L220.63-3Q222.27-3 223.57-3.53 224.88-4.05 226.27-5.2L226.27-5.2 228.22-2.55Q224.92 0.6 220.47 0.6L220.47 0.6Q215.77 0.6 213.17-2.88 210.57-6.35 210.57-12.9L210.57-12.9Q210.57-19.45 213.05-23.18 215.52-26.9 220.02-26.9L220.02-26.9Q224.38-26.9 226.7-23.63 229.02-20.35 229.02-13.95L229.02-13.95ZM224.77-14.9L224.77-15.25Q224.77-19.55 223.63-21.5 222.47-23.45 220.02-23.45L220.02-23.45Q217.82-23.45 216.57-21.48 215.32-19.5 215.13-14.9L215.13-14.9 224.77-14.9ZM245.12-26.9Q248.92-26.9 251.05-23.45 253.17-20 253.17-13.2L253.17-13.2Q253.17-8.9 252.12-5.8 251.07-2.7 249.15-1.05 247.22 0.6 244.67 0.6L244.67 0.6Q242.97 0.6 241.47-0.28 239.97-1.15 238.87-2.75L238.87-2.75 238.57 0 234.67 0 234.67-36.9 239.07-37.35 239.07-23.15Q241.42-26.9 245.12-26.9L245.12-26.9ZM243.72-2.9Q248.52-2.9 248.52-13.2L248.52-13.2Q248.52-18.85 247.37-21.13 246.22-23.4 244.07-23.4L244.07-23.4Q241.27-23.4 239.07-19.35L239.07-19.35 239.07-6.3Q239.97-4.75 241.15-3.83 242.32-2.9 243.72-2.9L243.72-2.9ZM278.12-26.9Q280.12-26.9 281.72-26.25 283.32-25.6 284.82-24.1L284.82-24.1 282.82-21.5Q281.67-22.45 280.59-22.9 279.52-23.35 278.27-23.35L278.27-23.35Q272.97-23.35 272.97-13.05L272.97-13.05Q272.97-7.7 274.32-5.4 275.67-3.1 278.22-3.1L278.22-3.1Q279.47-3.1 280.49-3.55 281.52-4 282.77-4.95L282.77-4.95 284.82-2.3Q281.82 0.6 278.17 0.6L278.17 0.6Q273.47 0.6 270.87-2.8 268.27-6.2 268.27-12.95L268.27-12.95Q268.27-19.55 270.92-23.23 273.57-26.9 278.12-26.9L278.12-26.9ZM299.96-26.9Q302.81-26.9 304.51-24.85 306.21-22.8 306.21-19.35L306.21-19.35 306.21 0 301.81 0 301.81-18.75Q301.81-21.3 301.09-22.38 300.37-23.45 298.92-23.45L298.92-23.45Q296.06-23.45 293.62-18.55L293.62-18.55 293.62 0 289.21 0 289.21-36.9 293.62-37.35 293.62-22.65Q294.87-24.75 296.34-25.83 297.81-26.9 299.96-26.9L299.96-26.9ZM328.51-5.6Q328.51-4.2 328.91-3.53 329.31-2.85 330.21-2.45L330.21-2.45 329.26 0.6Q327.41 0.3 326.34-0.58 325.26-1.45 324.81-3.2L324.81-3.2Q322.66 0.6 318.51 0.6L318.51 0.6Q315.26 0.6 313.34-1.58 311.41-3.75 311.41-7.35L311.41-7.35Q311.41-11.55 314.01-13.78 316.61-16 321.56-16L321.56-16 324.16-16 324.16-18.4Q324.16-21 323.14-22.2 322.11-23.4 319.96-23.4L319.96-23.4Q317.41-23.4 314.01-22.05L314.01-22.05 312.91-25.15Q316.96-26.9 320.51-26.9L320.51-26.9Q324.56-26.9 326.54-24.73 328.51-22.55 328.51-18.6L328.51-18.6 328.51-5.6ZM319.41-2.7Q322.51-2.7 324.16-6.9L324.16-6.9 324.16-13.05 322.06-13.05Q318.91-13.05 317.44-11.7 315.96-10.35 315.96-7.55L315.96-7.55Q315.96-5.15 316.86-3.93 317.76-2.7 319.41-2.7L319.41-2.7ZM345.81-3.95L347.51-1.2Q345.26 0.6 342.46 0.6L342.46 0.6Q339.51 0.6 337.89-1.15 336.26-2.9 336.26-5.85L336.26-5.85 336.26-22.9 332.71-22.9 332.71-26.35 336.26-26.35 336.26-32.3 340.66-32.85 340.66-26.35 345.76-26.35 345.31-22.9 340.66-22.9 340.66-5.8Q340.66-3.05 343.01-3.05L343.01-3.05Q343.81-3.05 344.41-3.25 345.01-3.45 345.81-3.95L345.81-3.95Z" opacity="1" transform="matrix(1,0,0,1,0,0)" fill="#ffffff" class="slogan-text-1" data-fill-palette-color="secondary" id="text-1"></path></svg></g></svg></g></svg></g></svg></g><g transform="matrix(1,0,0,1,60.54125886203282,0)"><svg viewBox="0 0 134.91748227593436 134.91749256932138" height="134.91749256932138" width="134.91748227593436"><g><svg xmlns="http://www.w3.org/2000/svg" xmlns:xlink="http://www.w3.org/1999/xlink" version="1.1" x="0" y="0" viewBox="0 -0.0000057220458984375 100 100.00000762939453" style="enable-background:new 0 0 100 100;" xml:space="preserve" width="134.91748227593436" height="134.91749256932138" class="icon-icon-0" data-fill-palette-color="accent" id="icon-0"><g fill="#ffffff" data-fill-palette-color="accent"><path d="M74.988 37.5c0 13.807-11.182 25-24.988 25C50 55.604 44.396 50 37.5 50H24.988C12.5 50 0 42.969 0 25 0 6.641 12.5 0 24.988 0H50c12.5 0 24.988 7.745 24.988 25V37.5z" fill="#ffffff" data-fill-palette-color="accent"></path></g><path d="M37.5 37.5" fill="#ffffff" data-fill-palette-color="accent"></path><path d="M37.5 37.5" fill="#ffffff" data-fill-palette-color="accent"></path><g fill="#ffffff" data-fill-palette-color="accent"><g fill="#ffffff" data-fill-palette-color="accent"><path d="M81.189 38.165C80.822 55.078 66.992 68.75 50 68.75h-6.25V62.5c0-3.448-2.808-6.25-6.25-6.25H25.623c-0.391 1.935-0.635 4.004-0.635 6.25V75c0 13.807 11.205 25 25.012 25 0-6.909 5.604-12.5 12.5-12.5h12.488C87.5 87.5 100 80.469 100 62.5 100 47.211 91.297 40.125 81.189 38.165z" fill="#ffffff" data-fill-palette-color="accent"></path></g></g></svg></g></svg></g><g></g></svg></g></svg></g></svg></g><defs></defs></svg><rect width="512" height="320" fill="none" stroke="none" visibility="hidden"></rect></g></svg></g></svg>